<?xml version="1.0" standalone="no"?>
<!DOCTYPE svg PUBLIC "-//W3C//DTD SVG 20010904//EN"
 "http://www.w3.org/TR/2001/REC-SVG-20010904/DTD/svg10.dtd">
<svg version="1.0" xmlns="http://www.w3.org/2000/svg"
 width="152.000000pt" height="152.000000pt" viewBox="0 0 152.000000 152.000000"
 preserveAspectRatio="xMidYMid meet">
<metadata>
Created by potrace 1.11, written by Peter Selinger 2001-2013
</metadata>
<g transform="translate(0.000000,152.000000) scale(0.100000,-0.100000)"
fill="#000000" stroke="none">
<path d="M0 760 l0 -760 760 0 760 0 0 760 0 760 -760 0 -760 0 0 -760z m1071
448 c2 -18 3 -43 1 -55 l-3 -23 -240 0 -239 0 -1 -27 c-1 -27 0 -220 1 -235 0
-4 93 -9 207 -10 l207 -3 0 -50 1 -50 -208 -3 -207 -2 -1 -53 c0 -28 -1 -134
-1 -235 l0 -182 -64 0 -64 0 0 240 c-1 132 -1 296 -1 365 0 69 0 177 1 240 l0
115 304 0 304 0 3 -32z"/>
</g>
</svg>
